#tb 0: 1/25
#media_type 0: video
#codec_id 0: rawvideo
#dimensions 0: 528x4216
#sar 0: 0/1
0,          0,          0,        1,  3339072, 0x28be238d
0,          1,          1,        1,  3339072, 0x43b62aae
0,          2,          2,        1,  3339072, 0x36259da6
0,          3,          3,        1,  3339072, 0xd0dbbc1e
0,          4,          4,        1,  3339072, 0x20df7c7c
0,          5,          5,        1,  3339072, 0xb8872e77
0,          6,          6,        1,  3339072, 0xceb4cce4
0,          7,          7,        1,  3339072, 0x4ffa1dab
0,          8,          8,        1,  3339072, 0x1c687703
0,          9,          9,        1,  3339072, 0x5a0fa46f
